#!OML:ASF I:\Actors\actors\Patient Classification 2\Patient 1\Session 1\actor1.ASF
:FULLY-SPECIFIED
:DEGREES
591
root -0.621372 18.0002 4.36024 25.3854 5.29588 -5.62552
lowerback 24.1848 -2.23673 2.59315
upperback -6.0491 -2.49491 -1.52717
thorax -20.5795 -1.50309 -2.17924
lowerneck -11.5263 -7.13183 -4.52033
upperneck -30.3737 -8.60434 5.77403
head -7.13106 -4.08155 2.86986
rclavicle -1.59028e-014 0
rhumerus -55.4077 4.63378 -94.0818
rradius 124.692
rwrist 20.439
rhand -10.3591 -45.698
rfingers 7.12502
rthumb 15.6379 -75.086
lclavicle -1.59028e-014 0
lhumerus -55.7996 -12.3373 95.9693
lradius 129.883
lwrist -11.6083
lhand -0.104145 -14.2295
lfingers 7.12502
lthumb 25.4906 14.0856
rfemur -43.4061 -14.7515 26.2193
rtibia 35.3595
rfoot -18.25 1.90748
rtoes -11.4005
lfemur -53.7414 10.5703 -11.4913
ltibia 47.1531
lfoot -17.6829 -4.45771
ltoes -55.7339
592
root -0.586917 17.9223 4.283 25.6168 5.44018 -5.98252
lowerback 24.1916 -2.33718 3.08617
upperback -5.36585 -2.38015 -1.11035
thorax -19.6906 -1.46029 -2.0329
lowerneck -10.8877 -6.88267 -4.51305
upperneck -30.0263 -8.37965 5.47305
head -7.13509 -3.9731 2.78157
rclavicle 1.90833e-014 2.54444e-014
rhumerus -54.2565 5.24246 -93.5665
rradius 124.819
rwrist 20.3679
rhand -10.3485 -45.8728
rfingers 7.12502
rthumb 15.648 -75.26
lclavicle 1.90833e-014 2.54444e-014
lhumerus -54.2613 -11.9273 96.0327
lradius 129.935
lwrist -11.783
lhand -0.0777413 -14.0925
lfingers 7.12502
lthumb 25.5159 14.2189
rfemur -44.9616 -15.3862 26.9641
rtibia 37.11
rfoot -18.2949 2.74504
rtoes -11.7706
lfemur -55.125 10.7584 -11.3456
ltibia 48.4938
lfoot -17.8942 -4.64549
ltoes -55.7692
593
root -0.597575 17.8413 4.21916 26.1718 4.91077 -5.55135
lowerback 23.8563 -2.03194 2.4575
upperback -4.83535 -2.1899 -1.20758
thorax -18.7987 -1.30084 -1.87827
lowerneck -10.8548 -6.91571 -4.39915
upperneck -28.7098 -8.48307 5.2318
head -6.70078 -4.04287 2.63547
rclavicle 7.95139e-016 -1.90833e-014
rhumerus -53.3639 4.91827 -93.2188
rradius 125.276
rwrist 18.449
rhand -9.61966 -46.9943
rfingers 7.12502
rthumb 16.3499 -76.3251
lclavicle 7.95139e-016 -1.90833e-014
lhumerus -53.0051 -12.3055 95.8627
lradius 129.965
lwrist -11.9573
lhand -0.0670105 -14.0148
lfingers 7.12502
lthumb 25.5262 14.2952
rfemur -46.8266 -15.1291 26.5501
rtibia 38.9347
rfoot -18.6181 2.98017
rtoes -12.4152
lfemur -56.6276 11.1486 -12.1795
ltibia 49.7285
lfoot -18.1238 -4.73252
ltoes -55.8589
594
root -0.602279 17.76 4.15455 26.5733 4.56295 -5.49353
lowerback 23.4422 -1.77917 2.1392
upperback -3.82144 -1.92115 -1.03911
thorax -17.9517 -1.14147 -1.72145
lowerneck -11.0205 -6.89771 -4.0734
upperneck -27.1844 -8.57918 4.66994
head -6.20392 -4.11051 2.34102
rclavicle 1.19271e-014 6.36111e-015
rhumerus -52.2379 4.98658 -92.8233
rradius 125.424
rwrist 17.8163
rhand -9.5802 -47.8659
rfingers 7.12502
rthumb 16.3879 -77.1936
lclavicle 1.19271e-014 6.36111e-015
lhumerus -51.2436 -12.681 95.6883
lradius 129.846
lwrist -12.1753
lhand 0.0455349 -13.9581
lfingers 7.12502
lthumb 25.634 14.3364
rfemur -48.4702 -14.9281 26.5573
rtibia 40.6628
rfoot -18.9173 3.2755
rtoes -12.7969
lfemur -58.0189 11.6475 -12.6183
ltibia 50.9648
lfoot -18.3001 -4.94843
ltoes -55.9038
595
root -0.613039 17.6852 4.09877 26.7843 4.29008 -5.61842
lowerback 22.9286 -1.53147 1.80694
upperback -3.1223 -1.65861 -0.841885
thorax -16.7311 -0.963295 -1.40993
lowerneck -10.1327 -6.68149 -3.78905
upperneck -26.0943 -8.40282 4.3341
head -6.01242 -4.05379 2.18417
rclavicle 9.54166e-015 1.74931e-014
rhumerus -51.2923 5.27769 -92.5178
rradius 125.33
rwrist 17.8791
rhand -9.79372 -48.1754
rfingers 7.12502
rthumb 16.1823 -77.5199
lclavicle 9.54166e-015 1.74931e-014
lhumerus -49.5527 -13.079 95.3971
lradius 129.645
lwrist -12.4038
lhand 0.269838 -13.9245
lfingers 7.12502
lthumb 25.8488 14.3388
rfemur -49.7672 -14.6517 26.7126
rtibia 42.2954
rfoot -19.335 3.56487
rtoes -12.8912
lfemur -59.1257 12.2592 -12.8212
ltibia 52.1159
lfoot -18.4457 -5.22923
ltoes -55.9458
596
root -0.631919 17.6179 4.04731 26.9082 4.06898 -5.65866
lowerback 22.5121 -1.29024 1.29609
upperback -2.52187 -1.45191 -0.636017
thorax -15.7152 -0.801382 -0.962801
lowerneck -8.38094 -6.35139 -3.6612
upperneck -25.2088 -8.03402 4.30374
head -6.00962 -3.90607 2.18658
rclavicle 1.11319e-014 3.18055e-014
rhumerus -50.6076 5.67513 -92.3193
rradius 124.994
rwrist 18.6084
rhand -10.3895 -47.96
rfingers 7.12502
rthumb 15.6085 -77.3502
lclavicle 1.11319e-014 3.18055e-014
lhumerus -48.0882 -13.5023 95.0306
lradius 129.402
lwrist -12.6736
lhand 0.458068 -13.8231
lfingers 7.12502
lthumb 26.029 14.4139
rfemur -50.8264 -14.3435 26.7491
rtibia 43.7513
rfoot -19.7841 3.71176
rtoes -13.08
lfemur -60.069 12.7874 -13.0315
ltibia 53.1982
lfoot -18.6176 -5.48889
ltoes -55.9661
597
root -0.633846 17.5562 3.99907 26.8146 3.84842 -5.71499
lowerback 22.2858 -1.03515 1.11958
upperback -1.78149 -1.13078 -0.43624
thorax -14.6726 -0.623031 -0.752339
lowerneck -7.45288 -6.19595 -3.76457
upperneck -23.616 -7.84377 4.32978
head -5.63879 -3.83031 2.19193
rclavicle -3.02153e-014 -1.35174e-014
rhumerus -49.8408 6.0737 -91.862
rradius 124.363
rwrist 20.6908
rhand -11.6462 -46.8434
rfingers 7.12502
rthumb 14.3979 -76.324
lclavicle -3.02153e-014 -1.35174e-014
lhumerus -46.313 -14.0776 94.8272
lradius 128.854
lwrist -12.9417
lhand 0.490461 -13.8297
lfingers 7.12502
lthumb 26.0601 14.4027
rfemur -51.5477 -14.1562 26.7205
rtibia 45.0159
rfoot -20.1296 3.90305
rtoes -13.284
lfemur -60.689 13.1263 -13.1515
ltibia 54.1819
lfoot -18.8403 -5.57125
ltoes -56.0351
598
root -0.620014 17.4968 3.94905 26.6372 3.70877 -5.68706
lowerback 22.1468 -0.819719 1.23024
upperback -0.983137 -0.794848 -0.281192
thorax -13.6396 -0.463401 -0.758982
lowerneck -7.05059 -6.16733 -4.01105
upperneck -21.5218 -7.7908 4.43865
head -5.02183 -3.81555 2.21454
rclavicle -1.82882e-014 -2.38542e-015
rhumerus -49.0266 6.19115 -90.9644
rradius 124.233
rwrist 20.5449
rhand -11.5178 -46.3952
rfingers 7.12502
rthumb 14.5217 -75.8669
lclavicle -1.82882e-014 -2.38542e-015
lhumerus -44.3469 -14.8104 94.7083
lradius 128.034
lwrist -13.1027
lhand 0.328337 -14.1029
lfingers 7.12502
lthumb 25.9048 14.1523
rfemur -52.1204 -14.1818 26.6036
rtibia 46.0952
rfoot -20.3479 4.08185
rtoes -13.5742
lfemur -61.1783 13.2122 -13.3121
ltibia 55.0496
lfoot -19.0426 -5.52202
ltoes -56.2198
599
root -0.601124 17.4486 3.90732 26.3793 3.65541 -5.58892
lowerback 22.0294 -0.706774 1.35685
upperback -0.259711 -0.599755 -0.157851
thorax -12.7258 -0.369133 -0.760631
lowerneck -6.55734 -6.14656 -4.15722
upperneck -19.1501 -7.76029 4.57546
head -4.34774 -3.82099 2.22631
rclavicle -9.54166e-015 7.95139e-015
rhumerus -48.5289 6.43748 -90.2345
rradius 124.108
rwrist 20.344
rhand -11.5223 -46.258
rfingers 7.12502
rthumb 14.5173 -75.7301
lclavicle -9.54166e-015 7.95139e-015
lhumerus -42.6622 -15.5653 94.3832
lradius 127.738
lwrist -13.118
lhand 0.291912 -14.0843
lfingers 7.12502
lthumb 25.8699 14.176
rfemur -52.4453 -14.2888 26.388
rtibia 46.9524
rfoot -20.5401 4.22259
rtoes -13.6845
lfemur -61.4587 13.1299 -13.4711
ltibia 55.7675
lfoot -19.2564 -5.49232
ltoes -56.3667
600
root -0.574591 17.4124 3.8758 26.0228 3.62494 -5.51591
lowerback 21.8744 -0.689459 1.64437
upperback 0.452129 -0.503445 -0.104314
thorax -11.8207 -0.330588 -0.899842
lowerneck -5.80594 -6.13495 -4.13668
upperneck -16.6062 -7.7849 4.6907
head -4.10387 -3.84581 2.41148
rclavicle -2.78299e-015 -1.59028e-015
rhumerus -48.1234 6.83449 -89.7175
rradius 123.943
rwrist 20.1995
rhand -11.98 -46.7092
rfingers 7.12502
rthumb 14.0763 -76.2124
lclavicle -2.78299e-015 -1.59028e-015
lhumerus -41.1514 -16.3053 93.8019
lradius 127.928
lwrist -13.2251
lhand 0.597797 -13.8019
lfingers 7.12502
lthumb 26.1628 14.4153
rfemur -52.496 -14.4171 26.1438
rtibia 47.5926
rfoot -20.6927 4.42121
rtoes -13.3771
lfemur -61.4697 12.8972 -13.5026
ltibia 56.3249
lfoot -19.4756 -5.39537
ltoes -56.3527
601
root -0.544032 17.3865 3.85022 25.547 3.58974 -5.48918
lowerback 21.8762 -0.705616 2.02728
upperback 1.10443 -0.43047 -0.0701477
thorax -11.0812 -0.305939 -1.10611
lowerneck -4.2912 -6.19464 -3.86497
upperneck -15.0321 -7.89364 5.11743
head -3.79762 -3.95334 2.51112
rclavicle 9.54166e-015 0
rhumerus -47.7813 7.40517 -89.3984
rradius 123.677
rwrist 19.7061
rhand -13.3843 -46.6085
rfingers 7.12502
rthumb 12.7227 -76.2009
lclavicle 9.54166e-015 0
lhumerus -39.7602 -16.9284 93.2163
lradius 127.836
lwrist -13.48
lhand 0.943259 -13.8111
lfingers 7.12502
lthumb 26.4935 14.3567
rfemur -52.2955 -14.6088 25.9353
rtibia 48.0187
rfoot -20.7177 4.61136
rtoes -13.3441
lfemur -61.2147 12.588 -13.4157
ltibia 56.7186
lfoot -19.6764 -5.24042
ltoes -56.1765
